<svg width="292" height="256" viewBox="0 0 292 256" fill="none" xmlns="http://www.w3.org/2000/svg">
<path fill-rule="evenodd" clip-rule="evenodd" d="M95.5044 154.218C93.502 141.911 92.9355 129.12 92.9355 113.461C92.9355 103.939 86.1383 20.0056 106.063 21.9504C112.375 22.5661 115.749 31.2559 122.679 29.0803C126.217 27.9696 127.672 22.8823 140.071 7.62524C143.266 3.69603 144.452 31.5177 148.571 30.6127C161.995 27.6662 194.429 16.3666 205.866 21.9504C222.86 30.2489 202.609 50.1291 189.167 55.7626C161.974 67.1609 162.376 89.3818 155.245 112.008C151.59 123.61 165.402 189.156 148.571 160.144C144.885 153.792 129.111 118.067 122.946 130.513C118.039 140.42 102.432 196.778 95.5044 154.218Z" fill="#5DC5C7"/>
<path fill-rule="evenodd" clip-rule="evenodd" d="M264.021 84.8173C269.991 96.6692 264.466 119.344 261.368 126.661C252.78 146.938 200.144 137.799 192.606 138.032C186.627 138.217 187.965 113.85 187.697 98.8234C187.272 74.8985 261.778 80.3631 264.021 84.8173ZM240.956 106.467C240.956 117.088 239.613 121.559 227.303 121.48C211.231 121.376 208.906 121.654 208.469 108.591C208.273 102.768 240.956 103.389 240.956 106.467Z" fill="#91D8F7"/>
<path fill-rule="evenodd" clip-rule="evenodd" d="M44.744 165.61C87.8096 162.757 145.85 164.508 164.661 182.564C186.883 203.893 111.167 223.207 55.1823 214.328C36.8667 211.422 17.7499 201.474 8.70456 192.897C-0.00487676 184.641 -2.18611 178.807 2.19479 174.64C7.3336 169.751 21.4988 167.15 44.744 165.61Z" fill="#FFCC29"/>
<path fill-rule="evenodd" clip-rule="evenodd" d="M24.4375 79.08C21.6523 87.2075 29.1865 96.566 32.9029 110.404C36.3587 123.273 35.8862 140.738 36.84 146.139C38.0421 152.944 43.3333 166.548 51.6457 166.218C64.4138 135.555 60.2344 124.693 102.224 107.034C120.262 99.4479 150.536 81.4122 138.152 67.4671C133.286 61.9871 26.5833 68.946 24.4375 75.2042" fill="#7CC89F"/>
<path d="M104.835 24.9724C105.99 22.4901 99.8656 9.93577 97.5869 9.64144C97.4164 10.3892 97.2367 11.296 97.0511 12.3273C96.2414 16.8187 95.8252 23.0648 95.6487 29.2931C95.3718 39.0905 92.8284 48.3612 92.8284 58.9163L83.9072 59.5065C83.9072 50.4454 91.4129 21.6259 91.7872 11.3841C92.624 6.74755 94.0634 3.39707 96.3363 2.44487L98.0766 1.71777C100.188 3.32145 108.58 12.0478 110.183 24.6376L104.835 24.9724Z" fill="#373435"/>
<path d="M127.901 24.7788C129.741 20.7777 132.724 2.89033 135.902 1.24389L138.311 5.72205e-05L140.174 1.75842C142.201 3.67533 143.88 5.57717 145.143 8.69263H145.146C146.323 11.5923 146.814 16.683 147.117 22.7773L142.669 23.2851C142.452 18.8792 140.87 11.9846 140.181 9.65413C139.634 13.1075 137.667 19.6979 134.527 24.3344L127.901 24.7788Z" fill="#373435"/>
<path d="M107.819 24.4285C112.493 24.4285 121.103 21.3819 130.263 22.6814C137.88 23.7621 145.723 29.3384 153.411 28.445C169.681 26.5504 189.125 13.8525 202.846 12.6153C205.409 12.384 203.797 12.7212 208.887 12.6153C213.47 12.52 216.741 15.8184 218.61 18.018C224.714 25.1767 220.263 32.9388 215.642 42.2175C211.022 51.4963 200.129 55.1331 200.129 55.1331C200.129 55.1331 180.199 66.1867 170.09 75.4305C159.98 84.6742 161.71 101.882 161.71 101.882C161.71 101.882 162.977 119.294 163.618 133.063C163.754 136.033 163.317 138.19 163.618 149.022C163.84 157.037 164.833 174.662 164.915 176.425C164.915 176.425 165.737 191.477 164.915 190.754C161.659 188.409 137.51 167.905 137.51 167.905C137.51 167.905 136.104 156.19 132.835 145.082C130.3 136.469 123.094 125.618 123.996 124.525C123.084 126.346 121.528 137.781 119.041 145.082C114.916 157.194 111.945 169.126 111.945 169.126C111.945 169.126 93.2758 188.55 90.1414 187.372C84.2912 185.182 86.007 147.808 86.007 138.582L92.1396 131.53L90.1414 149.763C90.1414 151.539 90.3936 163.964 90.364 167.258C90.2494 178.814 100.181 179.967 105.674 169.126C111.167 158.285 117.203 134.595 117.203 134.595C117.203 134.595 121.352 111.794 123.996 116.718C131.512 130.707 144.111 164.955 144.111 164.955C144.111 164.955 156.896 177.437 159.691 181.196C159.612 179.509 159.725 176.306 159.691 174.158C159.583 167.466 158.549 165.361 158.326 157.296C158.028 146.598 158.467 134.568 158.326 131.53C157.75 119.14 155.465 116.975 156.738 107.26C157.008 105.204 155.929 96.2133 156.738 94.0622C158.946 88.1964 159.099 77.7695 170.09 68.4939C181.081 59.2183 194.408 55.3031 202.846 49.2516C211.283 43.2002 211.542 40.7099 211.542 40.7099C211.542 40.7099 214.653 27.4259 209.935 22.6815C208.171 21.6452 210.173 18.0599 205.558 18.018C192.094 17.8959 180.779 24.4286 180.779 24.4286C180.779 24.4286 160.247 34.7592 154.087 34.3732C141.118 33.5607 138.886 26.4072 126.448 24.4286C114.009 22.45 104.334 33.2552 104.334 26.4589" fill="#373435"/>
<path fill-rule="evenodd" clip-rule="evenodd" d="M129.404 35.6099C132.284 35.6099 134.132 35.3026 134.132 38.1822C134.132 39.6652 131.32 39.1411 129.404 40.8243C127.6 42.4087 127.842 45.3654 126.445 45.3654C123.567 45.3654 124.188 43.7042 124.188 40.8243C124.188 37.9456 126.525 35.6099 129.404 35.6099Z" fill="#373435"/>
<path d="M268.668 76.696C250.633 73.6323 200.954 72.9596 193.062 83.2832C188.32 89.4903 179.295 136.139 204.897 137.284C215.526 137.759 215.063 138.005 225.092 138.023C235.104 138.038 248.031 137.658 257.803 136.532L257.801 136.538L258.268 136.481L258.268 136.477C269 135.035 274.073 127.009 276.071 117.074C278.374 106.735 279.577 93.336 277.197 83.2684H277.204L276.723 80.7331L276.452 80.0942L276.452 80.0828C275.593 78.0225 275.521 77.8585 268.668 76.696ZM269.366 71.4321C279.457 73.1452 279.625 73.5226 281.632 78.3119H281.636L282.011 79.1999L282.175 79.7571L282.715 82.6204L282.726 82.6407C284.563 92.8613 283.849 107.003 281.568 118.334C279.165 130.286 272.856 139.967 259.322 141.783L258.765 141.847C256.189 142.931 229.699 143.381 225.382 143.372C216.036 143.354 214.044 143.557 204.652 143.092C190.109 142.368 180.435 139.462 179.012 127.632C176.694 108.571 176.987 94.9123 184.121 85.5718C191.277 76.2062 204.966 71.6209 229.315 70.8755L229.403 70.8664C238.071 70.8664 261.788 70.1484 269.366 71.4321Z" fill="#373435"/>
<path d="M253.962 107.866C253.885 109.516 253.647 111.259 253.259 112.936C251.963 118.488 248.857 123.329 243.915 123.234C241.986 123.198 238.61 123.488 234.995 123.795C230.882 124.148 231.81 123.981 228.651 123.981C208.407 123.981 207.063 122.304 207.037 106.565C207.037 105.262 207.031 103.832 207.012 102.262V102.253C208.064 99.6057 226.442 98.4985 238.8 98.34C245.04 98.2577 250.011 97.8717 253.053 98.9789C254.025 99.3352 254.022 106.534 253.962 107.866ZM242.182 103.05L214.09 104.018C213.314 104.02 212.434 104.088 211.872 104.328C211.853 104.334 211.834 104.218 211.834 104.27V104.279L211.859 109.312C211.875 120.198 213.986 118.613 228.651 118.613C236.912 117.581 243.451 118.54 244.643 112.437C244.954 111.086 245.151 109.655 245.212 108.287C245.227 107.954 245.16 107.225 245.084 105.761C244.977 103.677 244.922 102.956 242.182 103.05Z" fill="#373435"/>
<path d="M33.4941 253.768L43.7799 229.481L52.066 253.196" stroke="#363434" stroke-width="4" stroke-linecap="round" stroke-linejoin="round"/>
<path d="M35.7812 248.909C40.1681 246.081 49.4243 244.05 54.6379 244.05" stroke="#363434" stroke-width="4" stroke-linecap="round" stroke-linejoin="round"/>
<path d="M72.5293 231.482C63.4916 231.482 60.9659 239.794 70.2449 242.412C79.6831 245.089 75.2903 256.356 65.1005 251.194" stroke="#363434" stroke-width="4" stroke-linecap="round" stroke-linejoin="round"/>
<path d="M147.535 233.928C141.009 233.928 134.567 238.327 137.936 247.98C139.408 252.202 147.08 253.168 151.21 249.428" stroke="#363434" stroke-width="4" stroke-linecap="round" stroke-linejoin="round"/>
<path d="M161.4 235.109C160.587 242.512 162.507 250.83 163.482 252.898" stroke="#363434" stroke-width="4" stroke-linecap="round" stroke-linejoin="round"/>
<path d="M160.947 223.613C158.21 224.782 159.96 228.117 163.806 226.612C163.806 222.517 161.763 223.265 160.947 223.613Z" stroke="#363434" stroke-width="4" stroke-linecap="round" stroke-linejoin="round"/>
<path d="M173.905 253.051C175.038 247.789 180.148 242.049 181.906 233.35C182.492 230.458 188.168 250.218 190.192 253.727" stroke="#363434" stroke-width="4" stroke-linecap="round" stroke-linejoin="round"/>
<path d="M195.598 234.364C203.113 234.364 208.051 232.934 216.007 232.934" stroke="#363434" stroke-width="4" stroke-linecap="round" stroke-linejoin="round"/>
<path d="M205.723 252.934C205.723 247.168 206.008 241.641 206.008 236.079" stroke="#363434" stroke-width="4" stroke-linecap="round" stroke-linejoin="round"/>
<path d="M224.99 234.572C224.99 238.048 223.358 251.713 228.132 251.713" stroke="#363434" stroke-width="4" stroke-linecap="round" stroke-linejoin="round"/>
<path d="M224.931 223.159C223.939 222.447 221.34 225.873 227.359 225.873C227.359 224.098 227.302 223.503 225.038 223.933L224.931 223.159Z" stroke="#363434" stroke-width="4" stroke-linecap="round" stroke-linejoin="round"/>
<path d="M249.946 240.161C243.526 228.303 223.744 253.149 248.325 250.758C251.213 250.475 252.724 245.294 249.946 240.161Z" stroke="#363434" stroke-width="4" stroke-linecap="round" stroke-linejoin="round"/>
<path d="M263.327 252.528C263.327 247.651 262.414 236.503 263.755 232.449C263.986 232.634 271.215 253.781 279.743 251.614C284.049 250.522 280.52 235.473 279.139 232.856" stroke="#363434" stroke-width="4" stroke-linecap="round" stroke-linejoin="round"/>
<path d="M175.202 247.771C179.589 244.943 188.845 242.913 194.059 242.913" stroke="#363434" stroke-width="4" stroke-linecap="round" stroke-linejoin="round"/>
<path d="M123.616 248.115C134.466 240.11 107.112 223.974 112.897 247.984C113.579 250.804 118.918 251.58 123.616 248.115Z" stroke="#363434" stroke-width="4" stroke-linecap="round" stroke-linejoin="round"/>
<path d="M95.9043 231.482C86.8666 231.482 84.3409 239.794 93.6199 242.412C103.058 245.089 98.6653 256.356 88.4755 251.194" stroke="#363434" stroke-width="4" stroke-linecap="round" stroke-linejoin="round"/>
<path fill-rule="evenodd" clip-rule="evenodd" d="M180.918 168.257C180.953 163.02 181.082 155.86 181.201 155.424L181.207 155.414C181.551 154.188 182.6 153.243 184.15 152.576C187.041 151.329 192.087 150.85 197.385 151.026C202.639 151.198 208.217 152.02 212.235 153.366C215.419 154.427 217.739 155.906 218.413 157.775H218.416C218.631 158.376 218.859 160.511 218.939 161.562C219.016 162.538 218.961 163.834 218.647 165.622C218.384 167.12 217.623 168.563 216.641 169.817C215.538 171.226 214.115 172.441 212.816 173.214V173.218L211.828 173.804H211.821C207.038 176.633 204.241 178.294 199.988 182.517H199.982C199.378 183.117 198.079 184.976 196.788 186.964C195.354 189.18 193.961 191.509 193.537 192.48C191.836 196.378 186.008 199.498 183.543 194.693C181.861 191.419 181.538 185.18 181.326 180.943C181.239 179.221 181.165 177.845 181.053 177.327C180.918 176.723 180.89 172.603 180.918 168.257ZM198.951 163.782L192.674 164.182C192.446 164.189 192.228 164.298 192.084 164.457C191.958 164.593 191.875 164.79 191.875 165.008V165.012C191.875 165.521 191.711 168.356 191.85 168.981L191.855 168.985L191.904 169.181L198.46 167.499C199.471 166.961 200.178 164.78 199.481 164C199.362 163.87 199.198 163.782 199.025 163.782H198.951Z" fill="#373435"/>
<path fill-rule="evenodd" clip-rule="evenodd" d="M243.061 161.572C244.582 162.235 246.055 163.158 247.081 164.394C250.512 168.539 249.723 171.458 247.152 173.585C243.954 176.23 230.59 179.214 231.167 182.045C231.794 185.104 238.873 187.689 239.586 181.578C239.66 180.294 249.782 177.377 251.921 177.75C252.29 179.297 253.349 183.329 251.435 186.834C250.343 188.837 248.842 190.881 246.925 192.579C244.978 194.303 242.594 195.69 239.76 196.359C235.551 197.35 230.339 196.765 224.101 193.356H224.097C223.494 193.028 222.92 192.652 222.378 192.244L222.376 192.238C219.243 189.863 217.137 186.189 216.333 182.205C215.531 178.233 216.01 173.911 218.028 170.216C218.409 169.515 218.847 168.837 219.32 168.211C221.763 164.981 224.296 162.776 227.206 161.457C230.123 160.144 233.392 159.73 237.311 160.07C238.491 160.17 240.845 160.611 243.061 161.572ZM229.702 174.532L237.255 170.346C238.388 169.133 233.616 168.217 231.581 169.299C228.609 170.932 228.801 174.683 229.702 174.532Z" fill="#373435"/>
<path fill-rule="evenodd" clip-rule="evenodd" d="M255.096 159.639C255.09 156.964 255.194 155.403 255.205 154.097C254.858 152.563 258.296 151.166 259.054 151.6C259.995 151.538 261.005 151.522 262.458 151.522C264.316 151.522 265.558 151.395 266.409 151.313C267.379 151.216 267.968 151.16 268.499 151.36C269.667 151.803 269.661 152.541 269.619 154.334L269.605 154.987H269.608C269.568 157.43 269.703 158.752 270.115 159.358V159.361C270.462 159.873 271.566 159.813 272.11 159.813C273.641 159.798 282.487 159.629 283.396 159.857L283.427 159.866C286.07 160.629 284.305 168.873 283.063 171.619C282.603 172.644 281.917 173.134 281 172.878H280.996C275.656 172.634 272.057 168.398 270.853 173.987C270.286 175.642 270.267 177.392 270.502 178.938C270.866 181.319 271.755 183.14 272.179 183.515C272.839 184.099 273.546 184.399 274.238 184.471C275.061 184.555 275.927 184.34 276.759 183.909V183.902C277.657 183.44 278.527 182.725 279.279 181.875C280.67 180.304 281.69 178.266 281.915 176.374L281.988 176.083L281.998 176.058L282.142 175.786C282.523 175.258 283.122 175.146 283.861 175.355C284.138 175.433 284.508 175.574 284.911 175.752C286.341 176.386 288.507 177.655 289.575 178.841H289.578C290.624 180.01 291.092 181.4 291.065 182.874V182.877C291.036 184.249 290.572 185.699 289.765 187.104V187.108C288.993 188.445 287.885 189.776 286.531 190.994C282.987 194.186 277.657 196.654 272.078 196.639C263.506 196.614 259.181 192.737 257.024 187.214C254.961 181.915 254.987 175.168 255.089 168.923C255.121 166.902 255.105 163.109 255.096 159.639Z" fill="#373435"/>
<path d="M34.742 89.2642C37.103 100.117 42.3884 115.741 44.5848 128.997C47.0774 144.033 41.8385 163.955 44.5848 178.376C45.1776 181.488 51.1238 181.834 51.8842 185.139C59.1977 179.274 55.1609 156.051 61.2561 141.341C66.9114 127.693 73.9569 114.587 79.5202 111.116C83.4215 108.682 83.138 109.109 88.2364 108.363C95.2122 107.344 104.593 110.452 112.842 108.363C115.81 107.612 112.842 103.442 112.842 103.442L103.624 96.7557C103.624 96.7557 113.106 98.5698 115.244 98.4571C121.396 98.1327 127.229 99.1658 135.588 91.8822C139.598 88.3879 147.798 84.162 150.779 79.4682C156.17 70.9785 154.56 61.9544 151.621 60.0245C129.76 64.1507 52.5951 61.2581 30.6176 67.6292C29.1212 68.1123 28.9776 65.0514 30.6176 64.5131C44.1363 60.5179 76.9036 58.6402 101.528 58.007C121.006 57.5082 139.776 56.1026 150.779 54.0184C151.657 53.8544 152.488 53.8634 153.261 54.0368C156.121 54.6848 157.588 57.186 158.057 60.7979C158.412 63.5358 158.214 67.0625 157.685 70.8565C156.227 81.2831 148.119 87.5861 137.509 95.2859C126.899 102.986 117.736 99.433 115.244 101.656C112.127 104.436 118.324 101.186 119.041 104.718C119.364 106.311 122.112 108.559 119.041 110.405C115.795 112.355 95.3818 111.626 88.2364 112.267C80.4438 112.965 81.6427 112.668 76.1167 120.815C70.5907 128.963 70.264 135.954 66.1323 144.856C61.5368 154.757 61.6966 188.904 51.1785 195.15C47.9662 194.744 43.1908 192.541 41.412 185.139C37.4217 168.533 38.8559 138.208 38.3383 131.608C36.3149 105.84 27.5037 92.5414 26.3115 87.0614C28.3256 83.5411 35.0733 88.2905 34.742 89.2642Z" fill="#373435"/>
<path d="M74.6618 71.4827C74.7287 73.837 72.0789 87.2281 67.919 102.724C65.2692 112.603 62.147 120.557 59.0473 121.345V121.339C58.6573 121.436 58.2771 121.488 57.9302 121.488C54.653 121.488 47.3256 120.464 44.8703 114.655C42.7615 109.672 38.5639 103.181 36.9239 96.7552C34.3197 86.5348 29.1064 72.5552 29.1064 69.2123C33.8381 67.5271 35.6628 82.6439 41.4125 93.8356C45.7859 102.348 51.9079 114.567 55.6946 111.115C60.8035 107.474 67.3871 83.3303 68.6188 75.2313C70.0221 73.0012 72.0757 71.8172 74.6618 71.4827Z" fill="#373435"/>
<path fill-rule="evenodd" clip-rule="evenodd" d="M87.0342 72.6555C94.6379 72.6555 108.393 69.6127 108.393 77.2173C108.393 84.8207 94.6379 100.202 87.0342 100.202C79.4299 100.202 73.2598 94.0338 73.2598 86.4293C73.2598 78.8238 79.4299 72.6555 87.0342 72.6555Z" fill="#FEFEFE"/>
<path fill-rule="evenodd" clip-rule="evenodd" d="M82.3433 76.9218C85.7505 76.9218 90.6854 75.5711 90.6854 78.9786C90.6854 82.386 85.7505 87.969 82.3433 87.969C78.9358 87.969 76.1699 86.5032 76.1699 83.0957C76.1699 79.6886 78.9358 76.9218 82.3433 76.9218Z" fill="#373435"/>
<path d="M201.723 48.2072C202.776 47.7545 203.332 47.0562 203.516 48.2083C203.699 49.3598 202.993 50.6614 201.94 51.1139C197.686 52.9306 194.834 53.5962 190.371 53.2072C186.041 52.8311 179.951 51.4045 177.987 49.5748C177.338 50.1936 176.533 51.1109 175.985 51.7351C175.538 52.2456 175.201 52.6234 174.881 52.8628C173.91 53.5897 172.765 53.3669 172.323 52.3674C171.882 51.3681 172.313 49.9695 173.283 49.2426C173.435 49.1294 173.309 49.1528 173.561 48.8658C174.403 47.9062 177.573 44.6883 178.734 43.8216C179.4 42.5472 181.537 44.2287 181.011 47.0297C182.477 48.4059 187.771 48.902 191.042 49.032C195.016 49.3782 198.076 49.7648 201.723 48.2072Z" fill="#373435"/>
<path d="M142.498 59.4305C142.498 59.4305 143.766 63.7121 147.154 65.7749C150.541 67.8378 153.677 67.6291 153.677 67.6291L155.412 60.9616L150.288 57.9916L142.498 59.4305Z" fill="#373435" stroke="#373435" stroke-linecap="round"/>
<path d="M199.941 18.423C199.941 18.423 203.363 26.6953 206.75 28.7581C210.138 30.8209 214.123 29.6442 214.123 29.6442L215.009 21.393L209.885 18.423H199.941Z" fill="#373435" stroke="#373435" stroke-linecap="round"/>
<path d="M118.73 99.545C118.73 99.545 122.29 99.7827 125.027 103.663C127.764 107.544 128.071 112.378 128.071 112.378C128.071 112.378 128.705 114.654 126.447 114.654C124.189 114.654 120.552 114.65 119.04 112.378C117.529 110.105 118.365 107.417 116.633 105.564C115.632 104.493 115.557 102.465 113.381 101.185C111.921 100.326 107.818 98.7245 107.818 98.7245L114.491 99.619L118.73 99.545Z" fill="#373435" stroke="#373435" stroke-width="1.00937" stroke-linecap="round"/>
</svg>
