<svg width="53" height="52" viewBox="0 0 53 52" fill="none" xmlns="http://www.w3.org/2000/svg">
<path d="M35.0399 38.22L38.6799 34.58L29.0599 24.96V13H23.8599V27.04L35.0399 38.22ZM26.4599 52C22.8633 52 19.4833 51.3171 16.32 49.9512C13.1566 48.5853 10.405 46.7333 8.06496 44.395C5.72496 42.0567 3.8729 39.3051 2.50876 36.14C1.14463 32.9749 0.461698 29.5949 0.459964 26C0.458231 22.4051 1.14116 19.0251 2.50876 15.86C3.87636 12.6949 5.72843 9.94326 8.06496 7.605C10.4015 5.26673 13.1532 3.41467 16.32 2.0488C19.4868 0.682934 22.8667 0 26.4599 0C30.0531 0 33.4331 0.682934 36.5999 2.0488C39.7667 3.41467 42.5184 5.26673 44.8549 7.605C47.1915 9.94326 49.0444 12.6949 50.4137 15.86C51.7831 19.0251 52.4651 22.4051 52.4599 26C52.4547 29.5949 51.7718 32.9749 50.4111 36.14C49.0505 39.3051 47.1984 42.0567 44.8549 44.395C42.5115 46.7333 39.7598 48.5862 36.5999 49.9538C33.4401 51.3214 30.0601 52.0035 26.4599 52ZM26.4599 46.8C32.2233 46.8 37.1312 44.7746 41.1837 40.7238C45.2363 36.673 47.2617 31.7651 47.2599 26C47.2582 20.2349 45.2328 15.327 41.1837 11.2762C37.1347 7.2254 32.2267 5.2 26.4599 5.2C20.6931 5.2 15.7852 7.22626 11.7362 11.2788C7.68709 15.3313 5.66169 20.2384 5.65996 26C5.65823 31.7616 7.68449 36.6695 11.7388 40.7238C15.793 44.7781 20.7001 46.8035 26.4599 46.8Z" fill="#332100"/>
</svg>
