<svg width="44" height="52" viewBox="0 0 44 52" fill="none" xmlns="http://www.w3.org/2000/svg">
<path fill-rule="evenodd" clip-rule="evenodd" d="M22.1266 4.33333C17.5295 4.33333 13.1207 6.15952 9.87011 9.41015C6.61948 12.6608 4.79329 17.0696 4.79329 21.6667C4.79329 28.3791 9.16073 34.8925 13.9495 39.9474C16.2996 42.428 18.6571 44.4588 20.4294 45.8702C21.089 46.3954 21.6652 46.8329 22.1266 47.1739C22.5881 46.8329 23.1642 46.3954 23.8238 45.8702C25.5962 44.4588 27.9536 42.428 30.3037 39.9474C35.0925 34.8925 39.46 28.3791 39.46 21.6667C39.46 17.0696 37.6338 12.6608 34.3831 9.41015C31.1325 6.15952 26.7237 4.33333 22.1266 4.33333ZM22.1266 49.8333C20.9248 51.6361 20.9242 51.6357 20.9236 51.6353L20.9174 51.6312L20.903 51.6215L20.8533 51.5879C20.8111 51.5593 20.751 51.5181 20.674 51.4648C20.5201 51.3582 20.299 51.2029 20.0202 51.0016C19.4628 50.599 18.6737 50.0115 17.7301 49.26C15.8462 47.7599 13.3286 45.5928 10.8037 42.9276C5.84253 37.6908 0.459961 30.1209 0.459961 21.6667C0.459961 15.9203 2.74269 10.4093 6.80598 6.34602C10.8693 2.28273 16.3803 0 22.1266 0C27.873 0 33.384 2.28273 37.4473 6.34602C41.5106 10.4093 43.7933 15.9203 43.7933 21.6667C43.7933 30.1209 38.4107 37.6908 33.4495 42.9276C30.9246 45.5928 28.4071 47.7599 26.5232 49.26C25.5795 50.0115 24.7904 50.599 24.2331 51.0016C23.9543 51.2029 23.7331 51.3582 23.5793 51.4648C23.5023 51.5181 23.4421 51.5593 23.3999 51.5879L23.3503 51.6215L23.3358 51.6312L23.3313 51.6342C23.3306 51.6347 23.3285 51.6361 22.1266 49.8333ZM22.1266 49.8333L23.3285 51.6361C22.6007 52.1213 21.6514 52.1205 20.9236 51.6353L22.1266 49.8333Z" fill="#332100"/>
<path fill-rule="evenodd" clip-rule="evenodd" d="M22.1266 17.3333C19.7334 17.3333 17.7933 19.2734 17.7933 21.6667C17.7933 24.0599 19.7334 26 22.1266 26C24.5199 26 26.46 24.0599 26.46 21.6667C26.46 19.2734 24.5199 17.3333 22.1266 17.3333ZM13.46 21.6667C13.46 16.8802 17.3402 13 22.1266 13C26.9131 13 30.7933 16.8802 30.7933 21.6667C30.7933 26.4531 26.9131 30.3333 22.1266 30.3333C17.3402 30.3333 13.46 26.4531 13.46 21.6667Z" fill="#332100"/>
</svg>
