<svg width="74" height="59" viewBox="0 0 74 59" fill="none" xmlns="http://www.w3.org/2000/svg">
<path fill-rule="evenodd" clip-rule="evenodd" d="M24.0424 41.8571C23.5383 38.517 23.3957 35.045 23.3957 30.795C23.3957 28.2108 21.6846 5.42985 26.7003 5.95771C28.2893 6.12483 29.1388 8.48337 30.8834 7.89289C31.774 7.59142 32.1402 6.21065 35.2616 2.06965C36.0659 1.0032 36.3644 8.55444 37.4013 8.30878C40.7806 7.50906 48.9453 4.44218 51.8245 5.95771C56.1027 8.21005 51.0047 13.6058 47.6208 15.1349C40.7754 18.2285 40.8765 24.2596 39.0815 30.4007C38.1612 33.5496 41.6382 51.3399 37.4013 43.4655C36.4735 41.7414 32.5025 32.0453 30.9505 35.4232C29.7153 38.1122 25.7864 53.4087 24.0424 41.8571Z" fill="#5DC5C7"/>
<path fill-rule="evenodd" clip-rule="evenodd" d="M66.4641 23.0207C67.9669 26.2375 66.576 32.3919 65.7963 34.3778C63.6343 39.8812 50.3839 37.4008 48.4862 37.4641C46.9811 37.5142 47.3179 30.9007 47.2505 26.8222C47.1433 20.3286 65.8994 21.8118 66.4641 23.0207ZM60.6576 28.8967C60.6576 31.7796 60.3195 32.9931 57.2208 32.9716C53.1748 32.9434 52.5896 33.0189 52.4794 29.4734C52.4302 27.8927 60.6576 28.0614 60.6576 28.8967Z" fill="#91D8F7"/>
<path fill-rule="evenodd" clip-rule="evenodd" d="M11.2638 44.9491C22.105 44.1747 36.7158 44.6499 41.4513 49.5508C47.0454 55.3397 27.9849 60.582 13.8915 58.1718C9.28075 57.3833 4.46832 54.6832 2.19126 52.3554C-0.00122766 50.1144 -0.550325 48.5311 0.55251 47.4C1.84614 46.0731 5.41206 45.3671 11.2638 44.9491Z" fill="#FFCC29"/>
<path fill-rule="evenodd" clip-rule="evenodd" d="M6.15218 21.4636C5.45103 23.6695 7.34767 26.2096 8.28322 29.9656C9.1532 33.4583 9.03425 38.1985 9.27435 39.6645C9.57695 41.5114 10.9089 45.2037 13.0015 45.1142C16.2157 36.7919 15.1636 33.8437 25.7339 29.0508C30.2748 26.9918 37.8959 22.0966 34.7783 18.3117C33.5534 16.8243 6.69236 18.7131 6.15218 20.4117" fill="#7CC89F"/>
<path d="M26.3903 6.77793C26.6812 6.10419 25.1394 2.69676 24.5657 2.61688C24.5228 2.81983 24.4776 3.06595 24.4309 3.34586C24.2271 4.5649 24.1223 6.26017 24.0778 7.95062C24.0081 10.6098 23.3679 13.126 23.3679 15.9908L21.1221 16.151C21.1221 13.6917 23.0115 5.86965 23.1058 3.08986C23.3164 1.83143 23.6788 0.92206 24.2509 0.663617L24.689 0.466273C25.2206 0.901536 27.3331 3.27 27.7367 6.68706L26.3903 6.77793Z" fill="#373435"/>
<path d="M32.1973 6.72534C32.6603 5.63939 33.4114 0.784477 34.2113 0.33761L34.8178 1.40757e-05L35.2867 0.477259C35.797 0.997539 36.2196 1.51373 36.5375 2.35931H36.5384C36.8348 3.14632 36.9582 4.52803 37.0346 6.18209L35.9149 6.31993C35.8601 5.1241 35.4621 3.2528 35.2885 2.62027C35.1508 3.55758 34.6556 5.3463 33.8651 6.60472L32.1973 6.72534Z" fill="#373435"/>
<path d="M27.1418 6.63034C28.3183 6.63034 30.4859 5.80343 32.7918 6.15614C34.7092 6.44945 36.6836 7.96294 38.6189 7.72045C42.7147 7.20625 47.6095 3.75985 51.0636 3.42405C51.7089 3.36128 51.3029 3.45278 52.5844 3.42405C53.738 3.39818 54.5615 4.29342 55.0321 4.89041C56.5687 6.83339 55.4481 8.94014 54.2849 11.4585C53.1218 13.9769 50.3796 14.964 50.3796 14.964C50.3796 14.964 45.3626 17.9641 42.8176 20.473C40.2727 22.9819 40.7082 27.6524 40.7082 27.6524C40.7082 27.6524 41.0272 32.3782 41.1883 36.1153C41.2226 36.9214 41.1126 37.507 41.1883 40.4468C41.2444 42.6222 41.4943 47.406 41.5148 47.8846C41.5148 47.8846 41.722 51.9699 41.5148 51.7737C40.6952 51.1372 34.616 45.5719 34.616 45.5719C34.616 45.5719 34.262 42.3923 33.4392 39.3775C32.8011 37.0398 30.9871 34.0946 31.2141 33.7981C30.9844 34.2923 30.5928 37.3958 29.9668 39.3775C28.9283 42.6649 28.1803 45.9034 28.1803 45.9034C28.1803 45.9034 23.4807 51.1753 22.6916 50.8557C21.2189 50.2612 21.6508 40.1173 21.6508 37.6134L23.1946 35.6994L22.6916 40.6479C22.6916 41.1302 22.7551 44.5023 22.7477 45.3964C22.7188 48.5328 25.219 48.8457 26.6018 45.9034C27.9846 42.9611 29.5039 36.5312 29.5039 36.5312C29.5039 36.5312 30.5485 30.3427 31.2141 31.6791C33.1062 35.476 36.2777 44.7713 36.2777 44.7713C36.2777 44.7713 39.4963 48.1592 40.1998 49.1793C40.1799 48.7216 40.2085 47.8521 40.1998 47.2692C40.1726 45.4529 39.9125 44.8817 39.8562 42.6926C39.7813 39.7889 39.8917 36.524 39.8562 35.6994C39.7112 32.3366 39.136 31.7487 39.4565 29.1122C39.5244 28.5541 39.2527 26.1138 39.4565 25.53C40.0123 23.9379 40.0508 21.1079 42.8176 18.5903C45.5844 16.0728 48.9395 15.0101 51.0636 13.3677C53.1876 11.7253 53.2527 11.0494 53.2527 11.0494C53.2527 11.0494 54.0358 7.44387 52.8483 6.15616C52.4042 5.8749 52.9081 4.9018 51.7463 4.89043C48.357 4.85728 45.5086 6.63035 45.5086 6.63035C45.5086 6.63035 40.3399 9.43422 38.7892 9.32947C35.5243 9.10894 34.9625 7.16736 31.8313 6.63035C28.7001 6.09333 26.2644 9.02604 26.2644 7.18142" fill="#373435"/>
<path fill-rule="evenodd" clip-rule="evenodd" d="M32.5762 9.66508C33.3011 9.66508 33.7663 9.58167 33.7663 10.3632C33.7663 10.7658 33.0586 10.6235 32.5762 11.0804C32.122 11.5104 32.183 12.3129 31.8314 12.3129C31.1068 12.3129 31.2633 11.862 31.2633 11.0804C31.2633 10.299 31.8515 9.66508 32.5762 9.66508Z" fill="#373435"/>
<path d="M67.6337 20.8166C63.0936 19.985 50.5876 19.8024 48.6008 22.6044C47.407 24.2891 45.1351 36.9503 51.58 37.261C54.2558 37.3899 54.1392 37.4567 56.6639 37.4616C59.1844 37.4656 62.4384 37.3625 64.8986 37.0569L64.8979 37.0586L65.0156 37.043L65.0154 37.0421C67.7171 36.6508 68.9943 34.4722 69.4972 31.7759C70.0771 28.9697 70.3798 25.3329 69.7807 22.6004H69.7824L69.6614 21.9123L69.5933 21.7389L69.593 21.7358C69.377 21.1766 69.3588 21.1321 67.6337 20.8166ZM67.8093 19.3879C70.3497 19.8528 70.3919 19.9552 70.8972 21.2551H70.8981L70.9925 21.4961L71.0338 21.6474L71.1697 22.4245L71.1724 22.43C71.635 25.2041 71.4553 29.0424 70.881 32.1178C70.2761 35.3616 68.6878 37.9893 65.2808 38.4822L65.1408 38.4996C64.4922 38.7937 57.8236 38.9159 56.7369 38.9134C54.3841 38.9085 53.8828 38.9637 51.5183 38.8373C47.8574 38.6409 45.4221 37.8521 45.0637 34.6414C44.4803 29.4678 44.554 25.7607 46.3501 23.2256C48.1515 20.6836 51.5974 19.4391 57.7269 19.2368L57.7491 19.2343C59.9311 19.2343 65.9018 19.0394 67.8093 19.3879Z" fill="#373435"/>
<path d="M63.9314 29.2766C63.9121 29.7244 63.8522 30.1974 63.7546 30.6525C63.4282 32.1595 62.6463 33.4735 61.4022 33.4477C60.9165 33.4379 60.0667 33.5165 59.1568 33.5999C58.1214 33.6956 58.355 33.6503 57.5598 33.6503C52.4637 33.6503 52.1252 33.1951 52.1188 28.9233C52.1188 28.5697 52.1171 28.1818 52.1123 27.7555V27.7531C52.3771 27.0346 57.0036 26.734 60.1146 26.691C61.6854 26.6687 62.9369 26.5639 63.7025 26.8644C63.9474 26.9611 63.9465 28.915 63.9314 29.2766ZM60.9661 27.9694L53.8943 28.2321C53.6989 28.2328 53.4773 28.2512 53.3358 28.3162C53.331 28.3178 53.3262 28.2864 53.3262 28.3006V28.303L53.3327 29.6689C53.3366 32.6236 53.8679 32.1933 57.5598 32.1933C59.6393 31.9134 61.2853 32.1736 61.5854 30.5171C61.6638 30.1504 61.7135 29.7622 61.7286 29.3907C61.7325 29.3005 61.7157 29.1025 61.6966 28.7051C61.6695 28.1394 61.6558 27.9439 60.9661 27.9694Z" fill="#373435"/>
<path fill-rule="evenodd" clip-rule="evenodd" d="M45.5445 45.6677C45.5533 44.2461 45.5857 42.3029 45.6156 42.1845L45.6172 42.1818C45.7037 41.8489 45.968 41.5925 46.3581 41.4115C47.0859 41.0729 48.3561 40.9431 49.6899 40.9908C51.0124 41.0375 52.4166 41.2606 53.4281 41.6258C54.2297 41.9138 54.8136 42.3152 54.9834 42.8225H54.9842C55.0382 42.9857 55.0957 43.5651 55.1158 43.8504C55.1351 44.1154 55.1214 44.4672 55.0423 44.9525C54.9762 45.3588 54.7846 45.7506 54.5374 46.091C54.2595 46.4734 53.9015 46.8032 53.5744 47.0131V47.014L53.3256 47.1731H53.3239C52.12 47.9408 51.4156 48.3917 50.3451 49.5378H50.3435C50.1916 49.7009 49.8644 50.2052 49.5397 50.745C49.1786 51.3464 48.8278 51.9786 48.7211 52.2419C48.293 53.3001 46.8259 54.1468 46.2054 52.8425C45.782 51.9539 45.7004 50.2606 45.6471 49.1106C45.6253 48.6435 45.6066 48.2698 45.5784 48.1294C45.5445 47.9654 45.5373 46.8471 45.5445 45.6677ZM50.084 44.453L48.5038 44.5616C48.4466 44.5635 48.3916 44.5931 48.3553 44.6361C48.3237 44.6732 48.3028 44.7265 48.3028 44.7857V44.7867C48.3028 44.9249 48.2615 45.6945 48.2963 45.864L48.2978 45.865L48.31 45.9184L49.9606 45.4618C50.215 45.3159 50.3928 44.7238 50.2175 44.5121C50.1876 44.4768 50.1463 44.453 50.1028 44.453H50.084Z" fill="#373435"/>
<path fill-rule="evenodd" clip-rule="evenodd" d="M61.1877 43.8532C61.5704 44.0331 61.9412 44.2835 62.1997 44.6192C63.0634 45.744 62.8646 46.5363 62.2175 47.1137C61.4125 47.8315 58.0482 48.6415 58.1933 49.4099C58.3513 50.24 60.1332 50.9418 60.3127 49.283C60.3314 48.9346 62.8795 48.143 63.4179 48.2441C63.5109 48.6639 63.7775 49.7583 63.2956 50.7097C63.0208 51.2533 62.6428 51.808 62.1602 52.2689C61.6702 52.7367 61.07 53.1134 60.3567 53.2948C59.297 53.5638 57.985 53.405 56.4145 52.4799H56.4137C56.2618 52.3908 56.1173 52.2888 55.9809 52.178L55.9804 52.1764C55.1917 51.5318 54.6616 50.5345 54.4591 49.4531C54.2572 48.375 54.3779 47.202 54.8858 46.1992C54.9816 46.009 55.0919 45.825 55.211 45.655C55.8262 44.7783 56.4637 44.18 57.1963 43.8219C57.9306 43.4655 58.7534 43.3532 59.7401 43.4454C60.0371 43.4726 60.6298 43.5923 61.1877 43.8532ZM57.8247 47.3706L59.726 46.2345C60.0111 45.9054 58.8099 45.6566 58.2977 45.9503C57.5494 46.3936 57.5977 47.4115 57.8247 47.3706Z" fill="#373435"/>
<path fill-rule="evenodd" clip-rule="evenodd" d="M64.218 43.3284C64.2164 42.6026 64.2425 42.1788 64.2454 41.8244C64.1581 41.4079 65.0235 41.0289 65.2144 41.1468C65.4512 41.1298 65.7055 41.1255 66.0711 41.1255C66.5389 41.1255 66.8517 41.0909 67.0659 41.0687C67.3101 41.0425 67.4583 41.0273 67.592 41.0815C67.8859 41.2019 67.8844 41.4021 67.8738 41.8888L67.8703 42.066H67.8711C67.8611 42.729 67.8949 43.0877 67.9988 43.2522V43.2531C68.0861 43.392 68.364 43.3759 68.501 43.3759C68.8864 43.3716 71.1133 43.3258 71.342 43.3877L71.3499 43.3903C72.0152 43.5972 71.5709 45.8348 71.2584 46.5801C71.1426 46.8583 70.9698 46.9912 70.7388 46.9218H70.738C69.3936 46.8556 68.4877 45.7059 68.1847 47.2228C68.0419 47.6721 68.0371 48.1469 68.0961 48.5667C68.1878 49.2127 68.4116 49.7072 68.5185 49.8088C68.6844 49.9674 68.8625 50.0489 69.0367 50.0684C69.2439 50.0912 69.4619 50.0328 69.6713 49.9157V49.914C69.8973 49.7884 70.1164 49.5944 70.3058 49.3637C70.6559 48.9372 70.9126 48.3843 70.9693 47.8706L70.9877 47.7918L70.9902 47.7849L71.0265 47.7112C71.1224 47.5678 71.2731 47.5374 71.4592 47.5942C71.529 47.6152 71.622 47.6535 71.7234 47.7018C72.0835 47.8739 72.6287 48.2183 72.8975 48.5403H72.8983C73.1617 48.8576 73.2795 49.2349 73.2727 49.6349V49.6358C73.2654 50.0082 73.1486 50.4015 72.9454 50.783V50.784C72.7512 51.1469 72.4721 51.5081 72.1312 51.8387C71.239 52.7052 69.8973 53.3751 68.4929 53.3708C66.3351 53.3641 65.2462 52.3118 64.7032 50.8128C64.184 49.3747 64.1904 47.5432 64.2161 45.8484C64.2242 45.2997 64.2203 44.2705 64.218 43.3284Z" fill="#373435"/>
<path d="M8.74532 24.2277C9.33967 27.1733 10.6702 31.4138 11.2231 35.0119C11.8506 39.0928 10.5318 44.4998 11.2231 48.414C11.3723 49.2587 12.8692 49.3526 13.0606 50.2496C14.9017 48.6578 13.8855 42.3546 15.4199 38.3622C16.8436 34.6579 18.6172 31.1007 20.0177 30.1586C20.9998 29.4979 20.9284 29.6138 22.2119 29.4115C23.9679 29.1347 26.3295 29.9783 28.4059 29.4115C29.1531 29.2075 28.4059 28.0758 28.4059 28.0758L26.0855 26.261C26.0855 26.261 28.4725 26.7534 29.0106 26.7228C30.5593 26.6347 32.0277 26.9151 34.1319 24.9383C35.1414 23.9899 37.2057 22.8429 37.9561 21.5689C39.3133 19.2647 38.9081 16.8154 38.1682 16.2916C32.6649 17.4115 13.2396 16.6264 7.70705 18.3556C7.33036 18.4867 7.29419 17.656 7.70705 17.5099C11.1102 16.4255 19.359 15.9159 25.5578 15.744C30.4613 15.6086 35.1863 15.2271 37.9561 14.6615C38.1773 14.6169 38.3865 14.6194 38.5809 14.6664C39.3009 14.8423 39.6702 15.5212 39.7883 16.5015C39.8777 17.2446 39.8279 18.2018 39.6946 19.2316C39.3277 22.0615 37.2867 23.7722 34.6157 25.8621C31.9447 27.9519 29.638 26.9877 29.0106 27.591C28.226 28.3455 29.786 27.4635 29.9664 28.4221C30.0478 28.8544 30.7395 29.4645 29.9664 29.9656C29.1494 30.495 24.0106 30.2972 22.2119 30.471C20.2502 30.6605 20.552 30.5799 19.1609 32.7912C17.7698 35.0025 17.6875 36.9 16.6474 39.3161C15.4906 42.0035 15.5308 51.2714 12.883 52.9667C12.0744 52.8564 10.8722 52.2587 10.4244 50.2496C9.4199 45.7426 9.78093 37.5118 9.65063 35.7205C9.14127 28.7267 6.92315 25.1172 6.62305 23.6298C7.13006 22.6744 8.82871 23.9634 8.74532 24.2277Z" fill="#373435"/>
<path d="M18.7951 19.4016C18.812 20.0406 18.1449 23.6751 17.0977 27.8809C16.4307 30.5623 15.6447 32.7212 14.8644 32.9351V32.9333C14.7662 32.9596 14.6705 32.9738 14.5832 32.9738C13.7582 32.9738 11.9136 32.6959 11.2955 31.1193C10.7646 29.7667 9.70795 28.0049 9.29509 26.2609C8.63952 23.487 7.32715 19.6927 7.32715 18.7854C8.5183 18.328 8.97764 22.4309 10.4251 25.4685C11.526 27.779 13.0671 31.0954 14.0204 30.1585C15.3065 29.1701 16.9638 22.6172 17.2739 20.419C17.6271 19.8137 18.1441 19.4924 18.7951 19.4016Z" fill="#373435"/>
<path fill-rule="evenodd" clip-rule="evenodd" d="M21.9099 19.7199C23.824 19.7199 27.2867 18.8941 27.2867 20.958C27.2867 23.0217 23.824 27.1964 21.9099 27.1964C19.9956 27.1964 18.4424 25.5223 18.4424 23.4583C18.4424 21.3941 19.9956 19.7199 21.9099 19.7199Z" fill="#FEFEFE"/>
<path fill-rule="evenodd" clip-rule="evenodd" d="M20.7289 20.8777C21.5866 20.8777 22.8289 20.5111 22.8289 21.436C22.8289 22.3608 21.5866 23.8761 20.7289 23.8761C19.8711 23.8761 19.1748 23.4783 19.1748 22.5534C19.1748 21.6287 19.8711 20.8777 20.7289 20.8777Z" fill="#373435"/>
<path d="M50.7805 13.1574C51.0442 13.0409 51.1813 12.8559 51.2328 13.1664C51.2841 13.4768 51.1118 13.8232 50.8481 13.9397C49.7829 14.4072 49.0662 14.5722 47.9386 14.446C46.8443 14.3238 45.3013 13.9108 44.7976 13.4095C44.6368 13.5726 44.4375 13.8152 44.3022 13.9803C44.1916 14.1154 44.1083 14.2153 44.0286 14.278C43.7869 14.4687 43.4968 14.4032 43.3811 14.1325C43.2653 13.8618 43.3678 13.4879 43.6094 13.2973C43.6473 13.2676 43.6155 13.2733 43.6777 13.1974C43.886 12.9436 44.6714 12.0942 44.9604 11.8669C45.1228 11.5276 45.6696 11.9899 45.5494 12.7402C45.9254 13.1172 47.2633 13.2763 48.0893 13.3271C49.0934 13.4395 49.8672 13.5583 50.7805 13.1574Z" fill="#373435"/>
<path d="M35.8721 16.1304C35.8721 16.1304 36.1913 17.2925 37.044 17.8524C37.8968 18.4123 38.6862 18.3556 38.6862 18.3556L39.123 16.546L37.8331 15.7399L35.8721 16.1304Z" fill="#373435" stroke="#373435" stroke-linecap="round"/>
<path d="M50.333 5.00024C50.333 5.00024 51.1944 7.24547 52.0471 7.80535C52.8998 8.36523 53.9032 8.04586 53.9032 8.04586L54.126 5.80635L52.8362 5.00024H50.333Z" fill="#373435" stroke="#373435" stroke-linecap="round"/>
<path d="M29.8909 27.0209C29.8909 27.0209 30.7878 27.084 31.4763 28.1346C32.1647 29.1852 32.2407 30.4948 32.2407 30.4948C32.2407 30.4948 32.3996 31.1115 31.8306 31.1123C31.2617 31.1132 30.3452 31.1133 29.965 30.4981C29.5849 29.8829 29.7964 29.1541 29.3607 28.6528C29.1086 28.3627 29.0905 27.8133 28.5426 27.4673C28.1749 27.235 27.1416 26.8026 27.1416 26.8026L28.8226 27.0425L29.8909 27.0209Z" fill="#373435" stroke="#373435" stroke-width="1.00937" stroke-linecap="round"/>
</svg>
