<svg width="48" height="48" viewBox="0 0 48 48" fill="none" xmlns="http://www.w3.org/2000/svg">
<path d="M40.9358 47.6817C40.7408 47.6817 40.5458 47.6817 40.3291 47.66C33.3308 46.9017 26.5275 44.475 20.6558 40.6617C15.1958 37.195 10.4725 32.4717 7.0058 27.0117C3.19246 21.1184 0.765798 14.2934 0.0291312 7.29502C-0.0575355 6.36335 0.0507978 5.47502 0.332465 4.60835C0.614131 3.74169 1.0908 2.96169 1.69746 2.29002C2.30413 1.61835 3.0408 1.09835 3.86413 0.73002C4.70913 0.361687 5.59746 0.166687 6.50746 0.166687H13.0075C14.5241 0.166687 16.0841 0.708354 17.2975 1.74835C18.4891 2.76669 19.2691 4.19669 19.4858 5.75669C19.7458 7.68502 20.2225 9.59169 20.8941 11.39C21.3275 12.56 21.4358 13.8167 21.1541 15.03C20.8941 16.2434 20.2875 17.37 19.4208 18.2367L17.8608 19.7967C20.4175 23.7834 23.7975 27.185 27.8058 29.7417L29.3658 28.1817C30.2541 27.2934 31.3808 26.6867 32.5941 26.4484C33.8075 26.1884 35.0641 26.275 36.2341 26.7084C38.0325 27.38 39.9391 27.8567 41.8458 28.1167C43.4491 28.3334 44.8791 29.135 45.9191 30.3484C46.9375 31.5617 47.5008 33.1 47.4575 34.6817V41.16C47.4575 42.07 47.2841 42.9367 46.9158 43.7817C46.5475 44.605 46.0058 45.3633 45.3558 45.97C44.6841 46.5767 43.9041 47.0534 43.0375 47.335C42.3441 47.5734 41.6508 47.6817 40.9358 47.6817ZM13.0508 4.50002H13.0291H6.50746C6.20413 4.50002 5.92246 4.56502 5.6408 4.69502C5.35913 4.80335 5.09913 4.97669 4.90413 5.19335C4.68746 5.41002 4.5358 5.67002 4.44913 5.97335C4.36246 6.25502 4.31913 6.55835 4.3408 6.86169C5.01246 13.1667 7.2008 19.32 10.6458 24.6717C13.7875 29.6117 18.0558 33.88 22.9958 37.0217C28.3258 40.4883 34.4791 42.655 40.7625 43.3484C41.0225 43.37 41.3258 43.3267 41.6075 43.24C41.8891 43.1533 42.1491 42.98 42.3875 42.785C42.6258 42.59 42.7991 42.33 42.9075 42.0484C43.0375 41.7667 43.0808 41.4634 43.0808 41.16V34.66C43.0808 34.6384 43.0808 34.6167 43.0808 34.6167C43.1025 34.075 42.9075 33.5767 42.5608 33.165C42.2141 32.7533 41.7375 32.4934 41.2175 32.4284C39.0075 32.1467 36.7975 31.5834 34.6741 30.8034C34.2841 30.6517 33.8508 30.63 33.4608 30.7167C33.0491 30.8034 32.6808 30.9984 32.3775 31.3017L29.6475 34.0534C28.9541 34.7467 27.8925 34.8767 27.0475 34.4C21.2841 31.1284 16.5175 26.34 13.2241 20.5984C12.7691 19.6884 12.8991 18.6267 13.5925 17.9334L16.3441 15.1817C16.6258 14.9 16.8208 14.5317 16.9075 14.12C16.9941 13.7084 16.9725 13.2967 16.8208 12.9067C16.0191 10.7834 15.4775 8.57335 15.1741 6.34169C15.1091 5.84335 14.8491 5.36669 14.4591 5.02002C14.0691 4.69502 13.5708 4.50002 13.0508 4.50002Z" fill="#332100"/>
</svg>
